<?xml version="1.0" encoding="UTF-8"?>
<svg xmlns="http://www.w3.org/2000/svg" xmlns:xlink="http://www.w3.org/1999/xlink" width="500px" height="500px" viewBox="0 0 500 489" version="1.1">
<g id="surface1">
<path style=" stroke:none;fill-rule:evenodd;fill:rgb(100%,100%,100%);fill-opacity:1;" d="M 249.253906 0 C 111.421875 0 0 112.0625 0 250.699219 C 0 361.519531 71.394531 455.324219 170.433594 488.527344 C 182.816406 491.023438 187.351562 483.132812 187.351562 476.496094 C 187.351562 470.683594 186.945312 450.761719 186.945312 430.003906 C 117.605469 444.949219 103.167969 400.121094 103.167969 400.121094 C 92.027344 371.0625 75.515625 363.597656 75.515625 363.597656 C 52.820312 348.238281 77.167969 348.238281 77.167969 348.238281 C 102.34375 349.898438 115.550781 373.972656 115.550781 373.972656 C 137.832031 412.15625 173.734375 401.367188 188.179688 394.726562 C 190.238281 378.535156 196.847656 367.332031 203.863281 361.105469 C 148.5625 355.292969 90.378906 333.710938 90.378906 237.414062 C 90.378906 210.019531 100.277344 187.609375 115.960938 170.175781 C 113.484375 163.953125 104.816406 138.214844 118.4375 103.765625 C 118.4375 103.765625 139.484375 97.121094 186.9375 129.5 C 207.253906 124.011719 228.207031 121.21875 249.253906 121.195312 C 270.300781 121.195312 291.753906 124.105469 311.566406 129.5 C 359.027344 97.121094 380.070312 103.765625 380.070312 103.765625 C 393.695312 138.214844 385.019531 163.953125 382.546875 170.175781 C 398.644531 187.609375 408.132812 210.019531 408.132812 237.414062 C 408.132812 333.710938 349.949219 354.875 294.234375 361.105469 C 303.316406 368.992188 311.152344 383.929688 311.152344 407.589844 C 311.152344 441.210938 310.746094 468.191406 310.746094 476.488281 C 310.746094 483.132812 315.285156 491.023438 327.664062 488.53125 C 426.703125 455.320312 498.097656 361.519531 498.097656 250.699219 C 498.503906 112.0625 386.671875 0 249.253906 0 Z M 249.253906 0 "/>
</g>
</svg>
