<?xml version="1.0" encoding="UTF-8"?>
<svg xmlns="http://www.w3.org/2000/svg" xmlns:xlink="http://www.w3.org/1999/xlink" width="500px" height="500px" viewBox="0 0 500 448" version="1.1">
<g id="surface1">
<path style=" stroke:none;fill-rule:nonzero;fill:rgb(0%,0%,0%);fill-opacity:1;" d="M 65.121094 2.777344 C 43.332031 15.699219 0.40625 64.960938 0 77.878906 L 0 99.261719 C 0 126.367188 25.363281 150.191406 48.394531 150.191406 C 76.042969 150.191406 99.082031 127.300781 99.085938 100.128906 C 99.085938 127.300781 121.335938 150.191406 148.988281 150.191406 C 176.644531 150.191406 198.179688 127.300781 198.179688 100.128906 C 198.179688 127.300781 221.835938 150.191406 249.492188 150.191406 L 249.992188 150.191406 C 277.648438 150.191406 301.304688 127.300781 301.304688 100.128906 C 301.304688 127.300781 322.84375 150.191406 350.496094 150.191406 C 378.148438 150.191406 400.398438 127.300781 400.398438 100.128906 C 400.398438 127.300781 423.441406 150.191406 451.089844 150.191406 C 474.121094 150.191406 499.484375 126.371094 499.484375 99.261719 L 499.484375 77.878906 C 499.074219 64.957031 456.152344 15.695312 434.367188 2.777344 C 366.652344 0.402344 319.707031 -0.0078125 249.738281 0 C 179.773438 0.0078125 84.390625 1.097656 65.117188 2.777344 Z M 197.828125 137.425781 C 195.183594 142.03125 191.910156 146.242188 188.097656 149.941406 C 177.660156 160.140625 163.351562 166.457031 147.578125 166.457031 C 132.398438 166.472656 117.820312 160.539062 106.972656 149.933594 C 103.1875 146.234375 100.316406 142.277344 97.683594 137.667969 L 97.671875 137.675781 C 95.039062 142.292969 91.375 146.25 87.585938 149.953125 C 76.734375 160.550781 62.15625 166.476562 46.980469 166.464844 C 45.078125 166.464844 43.101562 165.941406 41.5 165.390625 C 39.277344 188.515625 38.339844 210.617188 38.007812 226.730469 L 38.003906 226.820312 C 37.960938 235.003906 37.921875 241.730469 37.878906 251.078125 C 38.308594 299.597656 33.070312 408.335938 59.296875 435.054688 C 99.933594 444.519531 174.714844 448.828125 249.738281 448.855469 L 249.75 448.855469 C 324.769531 448.828125 399.550781 444.519531 440.191406 435.054688 C 466.414062 408.332031 461.175781 299.597656 461.605469 251.078125 C 461.558594 241.730469 461.523438 235.003906 461.480469 226.816406 L 461.476562 226.726562 C 461.144531 210.609375 460.207031 188.511719 457.984375 165.386719 C 456.386719 165.9375 454.410156 166.460938 452.503906 166.460938 C 437.328125 166.472656 422.75 160.546875 411.898438 149.949219 C 408.109375 146.242188 404.445312 142.289062 401.8125 137.671875 L 401.800781 137.664062 C 399.164062 142.273438 396.292969 146.230469 392.511719 149.929688 C 381.664062 160.535156 367.085938 166.46875 351.90625 166.453125 C 336.136719 166.453125 321.824219 160.128906 311.386719 149.933594 C 307.574219 146.234375 304.300781 142.023438 301.65625 137.417969 C 299.039062 142.019531 295.796875 146.230469 292.015625 149.933594 C 281.164062 160.539062 266.585938 166.46875 251.40625 166.453125 C 250.855469 166.453125 250.304688 166.429688 249.753906 166.414062 L 249.742188 166.414062 C 249.191406 166.429688 248.640625 166.453125 248.085938 166.453125 C 232.90625 166.46875 218.328125 160.539062 207.476562 149.9375 C 203.695312 146.234375 200.449219 142.019531 197.835938 137.421875 Z M 156.128906 191.292969 L 156.125 191.3125 L 156.152344 191.3125 C 172.667969 191.347656 187.339844 191.3125 205.519531 211.132812 C 219.824219 209.632812 234.773438 208.886719 249.734375 208.90625 L 249.746094 208.90625 C 264.710938 208.886719 279.660156 209.632812 293.96875 211.132812 C 312.144531 191.3125 326.816406 191.347656 343.332031 191.3125 L 343.359375 191.3125 L 343.355469 191.292969 C 351.15625 191.292969 382.371094 191.292969 404.117188 252.3125 L 427.480469 336.019531 C 444.789062 398.292969 421.9375 399.816406 393.429688 399.871094 C 351.152344 398.296875 327.746094 367.628906 327.746094 336.964844 C 304.34375 340.796875 277.046875 342.710938 249.746094 342.714844 L 249.734375 342.714844 C 222.433594 342.714844 195.132812 340.796875 171.734375 336.964844 C 171.734375 367.628906 148.324219 398.296875 106.050781 399.871094 C 77.542969 399.816406 54.691406 398.292969 72 336.019531 L 95.367188 252.3125 C 117.117188 191.296875 148.328125 191.296875 156.132812 191.296875 Z M 249.734375 239.246094 L 249.734375 239.257812 C 249.695312 239.300781 205.230469 280.089844 197.238281 294.601562 L 226.355469 293.433594 L 226.355469 318.800781 C 226.355469 319.988281 238.039062 319.503906 249.734375 318.960938 L 249.746094 318.960938 C 261.441406 319.503906 273.125 319.988281 273.125 318.800781 L 273.125 293.433594 L 302.242188 294.601562 C 294.25 280.089844 249.746094 239.257812 249.746094 239.257812 L 249.746094 239.246094 L 249.738281 239.25 Z M 249.734375 239.246094 "/>
</g>
</svg>
